<svg xmlns="http://www.w3.org/2000/svg" viewBox="0 0 1200 255"><rect width="1200" height="255" fill="white"/><g data-row="0" style="cursor:pointer"><title>A · Zylinder E · 0–210 mm · 喂料口</title><rect x="1069.3406593406594" y="91" width="90.65934065934066" height="20" fill="#bbb" stroke="#222" stroke-width=".8"/><rect x="1069.3406593406594" y="138" width="90.65934065934066" height="20" fill="#bbb" stroke="#222" stroke-width=".8"/><rect x="1071.3406593406594" y="158" width="86.65934065934066" height="5" fill="#777" stroke="#222" stroke-width=".6"/><rect x="1099.6703296703297" y="91" width="30" height="20" fill="white" stroke="#222" stroke-width=".7"/><path d="M1114.6703296703297 94v13m-5-5l5 5 5-5" stroke="#df1616" stroke-width="2.5" fill="none"/><text x="1114.6703296703297" y="72" font-size="10" font-family="Arial" text-anchor="middle">A</text><rect x="1069.3406593406594" y="80" width="90.65934065934066" height="86" fill="#ffffff" fill-opacity="0" pointer-events="all" stroke="none" stroke-width="1.5"/></g><g data-row="1" style="cursor:pointer"><title>B · Wärmesperre · 210–211 mm · 热隔断</title><rect x="1068.9089481946626" y="83" width="1" height="79" fill="#c3c3c3" stroke="#222" stroke-width=".7"/><rect x="1068.9089481946626" y="111" width="1" height="27" fill="white"/><text x="1069.124803767661" y="72" font-size="10" font-family="Arial" text-anchor="middle">B</text><rect x="1068.9089481946626" y="80" width="3" height="86" fill="#ffffff" fill-opacity="0" pointer-events="all" stroke="none" stroke-width="1.5"/></g><g data-row="2" style="cursor:pointer"><title>C · Zylinder 0 · 211–421 mm · 封闭机筒</title><rect x="978.2496075353218" y="91" width="90.65934065934066" height="20" fill="#bbb" stroke="#222" stroke-width=".8"/><rect x="978.2496075353218" y="138" width="90.65934065934066" height="20" fill="#bbb" stroke="#222" stroke-width=".8"/><rect x="980.2496075353218" y="158" width="86.65934065934066" height="5" fill="#777" stroke="#222" stroke-width=".6"/><rect x="980.2496075353218" y="84" width="86.65934065934066" height="7" fill="#777" stroke="#222" stroke-width=".7"/><text x="1023.5792778649922" y="72" font-size="10" font-family="Arial" text-anchor="middle">C</text><rect x="978.2496075353218" y="80" width="90.65934065934066" height="86" fill="#ffffff" fill-opacity="0" pointer-events="all" stroke="none" stroke-width="1.5"/></g><g data-row="3" style="cursor:pointer"><title>D · Zylinder 0 · 421–631 mm · 封闭机筒</title><rect x="887.5902668759811" y="91" width="90.65934065934066" height="20" fill="#bbb" stroke="#222" stroke-width=".8"/><rect x="887.5902668759811" y="138" width="90.65934065934066" height="20" fill="#bbb" stroke="#222" stroke-width=".8"/><rect x="889.5902668759811" y="158" width="86.65934065934066" height="5" fill="#777" stroke="#222" stroke-width=".6"/><rect x="889.5902668759811" y="84" width="86.65934065934066" height="7" fill="#777" stroke="#222" stroke-width=".7"/><text x="932.9199372056514" y="72" font-size="10" font-family="Arial" text-anchor="middle">D</text><rect x="887.5902668759811" y="80" width="90.65934065934066" height="86" fill="#ffffff" fill-opacity="0" pointer-events="all" stroke="none" stroke-width="1.5"/></g><g data-row="4" style="cursor:pointer"><title>E · Zylinder 1 · 631–841 mm · 堵头封闭</title><rect x="796.9309262166405" y="91" width="90.65934065934066" height="20" fill="#bbb" stroke="#222" stroke-width=".8"/><rect x="796.9309262166405" y="138" width="90.65934065934066" height="20" fill="#bbb" stroke="#222" stroke-width=".8"/><rect x="798.9309262166405" y="158" width="86.65934065934066" height="5" fill="#777" stroke="#222" stroke-width=".6"/><path d="M825.2605965463108 84h34v7h-5v20h-24V91h-5z" fill="#909090" stroke="#222" stroke-width=".8"/><line x1="822.2605965463108" y1="83" x2="828.2605965463108" y2="83" stroke="#222" stroke-width="2"/><line x1="856.2605965463108" y1="83" x2="862.2605965463108" y2="83" stroke="#222" stroke-width="2"/><text x="842.2605965463108" y="72" font-size="10" font-family="Arial" text-anchor="middle">E</text><rect x="796.9309262166405" y="80" width="90.65934065934066" height="86" fill="#ffffff" fill-opacity="0" pointer-events="all" stroke="none" stroke-width="1.5"/></g><g data-row="5" style="cursor:pointer"><title>F · Zylinder S (LSB047) · 841–1051 mm · 侧喂（固定）</title><rect x="706.2715855572999" y="91" width="90.65934065934066" height="20" fill="#bbb" stroke="#222" stroke-width=".8"/><rect x="706.2715855572999" y="138" width="90.65934065934066" height="20" fill="#bbb" stroke="#222" stroke-width=".8"/><rect x="708.2715855572999" y="158" width="86.65934065934066" height="5" fill="#777" stroke="#222" stroke-width=".6"/><rect x="732.5627943485086" y="106" width="38.07692307692307" height="5" fill="white" stroke="#a32a2a" stroke-width=".7"/><path d="M732.5627943485086 106l5 5m-5 0l5-5" stroke="#c44" stroke-width=".65" fill="none"/><path d="M737.5627943485086 106l5 5m-5 0l5-5" stroke="#c44" stroke-width=".65" fill="none"/><path d="M742.5627943485086 106l5 5m-5 0l5-5" stroke="#c44" stroke-width=".65" fill="none"/><path d="M747.5627943485086 106l5 5m-5 0l5-5" stroke="#c44" stroke-width=".65" fill="none"/><path d="M752.5627943485086 106l5 5m-5 0l5-5" stroke="#c44" stroke-width=".65" fill="none"/><path d="M757.5627943485086 106l5 5m-5 0l5-5" stroke="#c44" stroke-width=".65" fill="none"/><path d="M762.5627943485086 106l5 5m-5 0l5-5" stroke="#c44" stroke-width=".65" fill="none"/><rect x="732.5627943485086" y="138" width="38.07692307692307" height="5" fill="white" stroke="#a32a2a" stroke-width=".7"/><path d="M732.5627943485086 138l5 5m-5 0l5-5" stroke="#c44" stroke-width=".65" fill="none"/><path d="M737.5627943485086 138l5 5m-5 0l5-5" stroke="#c44" stroke-width=".65" fill="none"/><path d="M742.5627943485086 138l5 5m-5 0l5-5" stroke="#c44" stroke-width=".65" fill="none"/><path d="M747.5627943485086 138l5 5m-5 0l5-5" stroke="#c44" stroke-width=".65" fill="none"/><path d="M752.5627943485086 138l5 5m-5 0l5-5" stroke="#c44" stroke-width=".65" fill="none"/><path d="M757.5627943485086 138l5 5m-5 0l5-5" stroke="#c44" stroke-width=".65" fill="none"/><path d="M762.5627943485086 138l5 5m-5 0l5-5" stroke="#c44" stroke-width=".65" fill="none"/><text x="751.6012558869702" y="72" font-size="10" font-family="Arial" text-anchor="middle">F</text><rect x="706.2715855572999" y="80" width="90.65934065934066" height="86" fill="#ffffff" fill-opacity="0" pointer-events="all" stroke="none" stroke-width="1.5"/></g><g data-row="6" style="cursor:pointer"><title>G · Zylinder 0 · 1051–1261 mm · 封闭机筒</title><rect x="615.6122448979592" y="91" width="90.65934065934066" height="20" fill="#bbb" stroke="#222" stroke-width=".8"/><rect x="615.6122448979592" y="138" width="90.65934065934066" height="20" fill="#bbb" stroke="#222" stroke-width=".8"/><rect x="617.6122448979592" y="158" width="86.65934065934066" height="5" fill="#777" stroke="#222" stroke-width=".6"/><rect x="617.6122448979592" y="84" width="86.65934065934066" height="7" fill="#777" stroke="#222" stroke-width=".7"/><text x="660.9419152276295" y="72" font-size="10" font-family="Arial" text-anchor="middle">G</text><rect x="615.6122448979592" y="80" width="90.65934065934066" height="86" fill="#ffffff" fill-opacity="0" pointer-events="all" stroke="none" stroke-width="1.5"/></g><g data-row="7" style="cursor:pointer"><title>H · Zylinder 1 · 1261–1471 mm · 堵头封闭</title><rect x="524.9529042386185" y="91" width="90.65934065934066" height="20" fill="#bbb" stroke="#222" stroke-width=".8"/><rect x="524.9529042386185" y="138" width="90.65934065934066" height="20" fill="#bbb" stroke="#222" stroke-width=".8"/><rect x="526.9529042386185" y="158" width="86.65934065934066" height="5" fill="#777" stroke="#222" stroke-width=".6"/><path d="M553.2825745682889 84h34v7h-5v20h-24V91h-5z" fill="#909090" stroke="#222" stroke-width=".8"/><line x1="550.2825745682889" y1="83" x2="556.2825745682889" y2="83" stroke="#222" stroke-width="2"/><line x1="584.2825745682889" y1="83" x2="590.2825745682889" y2="83" stroke="#222" stroke-width="2"/><text x="570.2825745682889" y="72" font-size="10" font-family="Arial" text-anchor="middle">H</text><rect x="524.9529042386185" y="80" width="90.65934065934066" height="86" fill="#ffffff" fill-opacity="0" pointer-events="all" stroke="none" stroke-width="1.5"/></g><g data-row="8" style="cursor:pointer"><title>I · Zylinder S (LSB047) · 1471–1681 mm · 侧喂（固定）</title><rect x="434.2935635792778" y="91" width="90.65934065934066" height="20" fill="#bbb" stroke="#222" stroke-width=".8"/><rect x="434.2935635792778" y="138" width="90.65934065934066" height="20" fill="#bbb" stroke="#222" stroke-width=".8"/><rect x="436.2935635792778" y="158" width="86.65934065934066" height="5" fill="#777" stroke="#222" stroke-width=".6"/><rect x="460.5847723704866" y="106" width="38.07692307692307" height="5" fill="white" stroke="#a32a2a" stroke-width=".7"/><path d="M460.5847723704866 106l5 5m-5 0l5-5" stroke="#c44" stroke-width=".65" fill="none"/><path d="M465.5847723704866 106l5 5m-5 0l5-5" stroke="#c44" stroke-width=".65" fill="none"/><path d="M470.5847723704866 106l5 5m-5 0l5-5" stroke="#c44" stroke-width=".65" fill="none"/><path d="M475.5847723704866 106l5 5m-5 0l5-5" stroke="#c44" stroke-width=".65" fill="none"/><path d="M480.5847723704866 106l5 5m-5 0l5-5" stroke="#c44" stroke-width=".65" fill="none"/><path d="M485.5847723704866 106l5 5m-5 0l5-5" stroke="#c44" stroke-width=".65" fill="none"/><path d="M490.5847723704866 106l5 5m-5 0l5-5" stroke="#c44" stroke-width=".65" fill="none"/><rect x="460.5847723704866" y="138" width="38.07692307692307" height="5" fill="white" stroke="#a32a2a" stroke-width=".7"/><path d="M460.5847723704866 138l5 5m-5 0l5-5" stroke="#c44" stroke-width=".65" fill="none"/><path d="M465.5847723704866 138l5 5m-5 0l5-5" stroke="#c44" stroke-width=".65" fill="none"/><path d="M470.5847723704866 138l5 5m-5 0l5-5" stroke="#c44" stroke-width=".65" fill="none"/><path d="M475.5847723704866 138l5 5m-5 0l5-5" stroke="#c44" stroke-width=".65" fill="none"/><path d="M480.5847723704866 138l5 5m-5 0l5-5" stroke="#c44" stroke-width=".65" fill="none"/><path d="M485.5847723704866 138l5 5m-5 0l5-5" stroke="#c44" stroke-width=".65" fill="none"/><path d="M490.5847723704866 138l5 5m-5 0l5-5" stroke="#c44" stroke-width=".65" fill="none"/><text x="479.6232339089481" y="72" font-size="10" font-family="Arial" text-anchor="middle">I</text><rect x="434.2935635792778" y="80" width="90.65934065934066" height="86" fill="#ffffff" fill-opacity="0" pointer-events="all" stroke="none" stroke-width="1.5"/></g><g data-row="9" style="cursor:pointer"><title>J · Zylinder 0 · 1681–1891 mm · 封闭机筒</title><rect x="343.6342229199372" y="91" width="90.65934065934066" height="20" fill="#bbb" stroke="#222" stroke-width=".8"/><rect x="343.6342229199372" y="138" width="90.65934065934066" height="20" fill="#bbb" stroke="#222" stroke-width=".8"/><rect x="345.6342229199372" y="158" width="86.65934065934066" height="5" fill="#777" stroke="#222" stroke-width=".6"/><rect x="345.6342229199372" y="84" width="86.65934065934066" height="7" fill="#777" stroke="#222" stroke-width=".7"/><text x="388.9638932496075" y="72" font-size="10" font-family="Arial" text-anchor="middle">J</text><rect x="343.6342229199372" y="80" width="90.65934065934066" height="86" fill="#ffffff" fill-opacity="0" pointer-events="all" stroke="none" stroke-width="1.5"/></g><g data-row="10" style="cursor:pointer"><title>K · Zylinder 0 · 1891–2101 mm · 封闭机筒</title><rect x="252.9748822605966" y="91" width="90.65934065934066" height="20" fill="#bbb" stroke="#222" stroke-width=".8"/><rect x="252.9748822605966" y="138" width="90.65934065934066" height="20" fill="#bbb" stroke="#222" stroke-width=".8"/><rect x="254.9748822605966" y="158" width="86.65934065934066" height="5" fill="#777" stroke="#222" stroke-width=".6"/><rect x="254.9748822605966" y="84" width="86.65934065934066" height="7" fill="#777" stroke="#222" stroke-width=".7"/><text x="298.3045525902669" y="72" font-size="10" font-family="Arial" text-anchor="middle">K</text><rect x="252.9748822605966" y="80" width="90.65934065934066" height="86" fill="#ffffff" fill-opacity="0" pointer-events="all" stroke="none" stroke-width="1.5"/></g><g data-row="11" style="cursor:pointer"><title>L · Zylinder 1 · 2101–2311 mm · VAC（固定）</title><rect x="162.31554160125586" y="91" width="90.65934065934066" height="20" fill="#bbb" stroke="#222" stroke-width=".8"/><rect x="162.31554160125586" y="138" width="90.65934065934066" height="20" fill="#bbb" stroke="#222" stroke-width=".8"/><rect x="164.31554160125586" y="158" width="86.65934065934066" height="5" fill="#777" stroke="#222" stroke-width=".6"/><rect x="192.6452119309262" y="91" width="30" height="20" fill="white" stroke="#222" stroke-width=".7"/><path d="M207.6452119309262 108V95m-5 5l5-5 5 5" stroke="#1c35e0" stroke-width="2.5" fill="none"/><text x="207.6452119309262" y="72" font-size="10" font-family="Arial" text-anchor="middle">L</text><rect x="162.31554160125586" y="80" width="90.65934065934066" height="86" fill="#ffffff" fill-opacity="0" pointer-events="all" stroke="none" stroke-width="1.5"/></g><g data-row="12" style="cursor:pointer"><title>M · Zylinder 0 · 2311–2521 mm · 封闭机筒</title><rect x="71.65620094191513" y="91" width="90.65934065934066" height="20" fill="#bbb" stroke="#222" stroke-width=".8"/><rect x="71.65620094191513" y="138" width="90.65934065934066" height="20" fill="#bbb" stroke="#222" stroke-width=".8"/><rect x="73.65620094191513" y="158" width="86.65934065934066" height="5" fill="#777" stroke="#222" stroke-width=".6"/><rect x="73.65620094191513" y="84" width="86.65934065934066" height="7" fill="#777" stroke="#222" stroke-width=".7"/><text x="116.98587127158547" y="72" font-size="10" font-family="Arial" text-anchor="middle">M</text><rect x="71.65620094191513" y="80" width="90.65934065934066" height="86" fill="#ffffff" fill-opacity="0" pointer-events="all" stroke="none" stroke-width="1.5"/></g><g data-row="13" style="cursor:pointer"><title>N · Zwischenflansch · 2521–2548 mm · 法兰</title><rect x="60" y="83" width="11.656200941915227" height="79" fill="#c3c3c3" stroke="#222" stroke-width=".7"/><rect x="60" y="111" width="11.656200941915227" height="27" fill="white"/><text x="65.82810047095761" y="72" font-size="10" font-family="Arial" text-anchor="middle">N</text><rect x="60" y="80" width="11.656200941915227" height="86" fill="#ffffff" fill-opacity="0" pointer-events="all" stroke="none" stroke-width="1.5"/></g><path d="M60 215H1160" stroke="#111" stroke-width="1"/><path d="M1160 212v9" stroke="#111"/><text x="1160" y="234" text-anchor="middle" font-size="10">0</text><path d="M944.1444270015699 212v9" stroke="#111"/><text x="944.1444270015699" y="234" text-anchor="middle" font-size="10">500</text><path d="M728.2888540031397 212v9" stroke="#111"/><text x="728.2888540031397" y="234" text-anchor="middle" font-size="10">1000</text><path d="M512.4332810047096 212v9" stroke="#111"/><text x="512.4332810047096" y="234" text-anchor="middle" font-size="10">1500</text><path d="M296.5777080062794 212v9" stroke="#111"/><text x="296.5777080062794" y="234" text-anchor="middle" font-size="10">2000</text><path d="M80.72213500784937 212v9" stroke="#111"/><text x="80.72213500784937" y="234" text-anchor="middle" font-size="10">2500</text><text x="60" y="248" fill="#999" font-size="10">2548</text><text x="1160" y="206" text-anchor="end" font-size="10">[mm]</text></svg>